HIERARCHY
ROOT Hips
{
	OFFSET 0.000000 0.000000 0.000000
	CHANNELS 6 Xposition Yposition Zposition Xrotation Yrotation Zrotation
	JOINT LeftUpLeg_virtual
	{
		OFFSET 0.000000 0.000000 0.000000
		CHANNELS 3 Xrotation Yrotation Zrotation
		JOINT LeftUpLeg
		{
			OFFSET 11.394100 -6.187798 -0.413800
			CHANNELS 3 Xrotation Yrotation Zrotation
			JOINT LeftLeg
			{
				OFFSET 0.430247 -32.302673 3.732800
				CHANNELS 3 Xrotation Yrotation Zrotation
				JOINT LeftFoot
				{
					OFFSET -0.430247 -48.264931 -6.423300
					CHANNELS 3 Xrotation Yrotation Zrotation
					JOINT LeftToeBase
					{
						OFFSET 4.230900 -16.068199 23.438400
						CHANNELS 3 Xrotation Yrotation Zrotation
						JOINT LeftToe_End
						{
							OFFSET 4.510700 0.695400 19.974600
							CHANNELS 3 Xrotation Yrotation Zrotation
							End Site
							{
								OFFSET 0 0 0
							}
						}
					}
				}
			}
		}
	}
	JOINT RightUpLeg_virtual
	{
		OFFSET 0.000000 0.000000 0.000000
		CHANNELS 3 Xrotation Yrotation Zrotation
		JOINT RightUpLeg
		{
			OFFSET -11.333700 -6.187798 -0.413800
			CHANNELS 3 Xrotation Yrotation Zrotation
			JOINT RightLeg
			{
				OFFSET -0.430392 -32.302628 3.733000
				CHANNELS 3 Xrotation Yrotation Zrotation
				JOINT RightFoot
				{
					OFFSET 0.430392 -48.264973 -6.423500
					CHANNELS 3 Xrotation Yrotation Zrotation
					JOINT RightToeBase
					{
						OFFSET -4.230900 -16.068199 23.438400
						CHANNELS 3 Xrotation Yrotation Zrotation
						JOINT RightToe_End
						{
							OFFSET -4.510700 0.695400 19.974600
							CHANNELS 3 Xrotation Yrotation Zrotation
							End Site
							{
								OFFSET 0 0 0
							}
						}
					}
				}
			}
		}
	}
	JOINT Spine_virtual
	{
		OFFSET 0.000000 0.000000 0.000000
		CHANNELS 3 Xrotation Yrotation Zrotation
		JOINT Spine
		{
			OFFSET -0.002400 12.777504 0.315300
			CHANNELS 3 Xrotation Yrotation Zrotation
			JOINT Spine1
			{
				OFFSET -0.002067 5.816869 0.032633
				CHANNELS 3 Xrotation Yrotation Zrotation
				JOINT Spine1_split
				{
					OFFSET -0.002067 5.816869 0.032633
					CHANNELS 3 Xrotation Yrotation Zrotation
					JOINT Spine2
					{
						OFFSET -0.002067 5.816869 0.032633
						CHANNELS 3 Xrotation Yrotation Zrotation
						JOINT Neck_virtual
						{
							OFFSET 0.000000 0.000000 0.000000
							CHANNELS 3 Xrotation Yrotation Zrotation
							JOINT Neck
							{
								OFFSET -0.003700 21.199493 -0.826900
								CHANNELS 3 Xrotation Yrotation Zrotation
								JOINT Head
								{
									OFFSET 0.000000 20.442200 4.834800
									CHANNELS 3 Xrotation Yrotation Zrotation
									JOINT HeadTop_End
									{
										OFFSET 0.000000 34.668396 4.968400
										CHANNELS 3 Xrotation Yrotation Zrotation
										End Site
										{
											OFFSET 0 0 0
										}
									}
								}
							}
						}
						JOINT LeftShoulder_virtual
						{
							OFFSET 0.000000 0.000000 0.000000
							CHANNELS 3 Xrotation Yrotation Zrotation
							JOINT LeftShoulder
							{
								OFFSET 3.288150 8.794197 -1.372250
								CHANNELS 3 Xrotation Yrotation Zrotation
								JOINT LeftShoulder_split
								{
									OFFSET 3.288150 8.794197 -1.372250
									CHANNELS 3 Xrotation Yrotation Zrotation
									JOINT LeftArm
									{
										OFFSET 11.953299 -2.279007 -0.146200
										CHANNELS 3 Xrotation Yrotation Zrotation
										JOINT LeftForeArm
										{
											OFFSET 18.448900 0.000000 0.000000
											CHANNELS 3 Xrotation Yrotation Zrotation
											JOINT LeftHand
											{
												OFFSET 29.527798 0.000000 0.000000
												CHANNELS 3 Xrotation Yrotation Zrotation
												End Site
												{
													OFFSET 0 0 0
												}
											}
										}
									}
								}
							}
						}
						JOINT RightShoulder_virtual
						{
							OFFSET 0.000000 0.000000 0.000000
							CHANNELS 3 Xrotation Yrotation Zrotation
							JOINT RightShoulder
							{
								OFFSET -3.249400 8.794197 -1.372250
								CHANNELS 3 Xrotation Yrotation Zrotation
								JOINT RightShoulder_split
								{
									OFFSET -3.249400 8.794197 -1.372250
									CHANNELS 3 Xrotation Yrotation Zrotation
									JOINT RightArm
									{
										OFFSET -11.953299 -2.279007 -0.146200
										CHANNELS 3 Xrotation Yrotation Zrotation
										JOINT RightForeArm
										{
											OFFSET -18.448900 0.000000 0.000000
											CHANNELS 3 Xrotation Yrotation Zrotation
											JOINT RightHand
											{
												OFFSET -29.527802 0.000000 0.000000
												CHANNELS 3 Xrotation Yrotation Zrotation
												End Site
												{
													OFFSET 0 0 0
												}
											}
										}
									}
								}
							}
						}
					}
				}
			}
		}
	}
}
MOTION
Frames: 9
Frame Time: 0.03333333
-1.613025 80.110451 1.007378 0.000000 0.000000 0.000000 7.033264 -12.392193 3.781108 -60.679824 -0.630796 25.128596 49.820066 -1.447976 6.888305 7.786981 0.127431 -22.646052 -0.491092 0.371161 -1.023094 0.000000 0.000000 0.000000 6.801154 -12.838119 4.175416 -35.928991 2.699286 -32.318157 51.751630 5.640605 -1.838104 -18.087275 -9.528357 28.999931 1.310413 1.180156 0.453760 0.000000 0.000000 0.000000 8.278758 -10.946911 4.037811 7.713373 0.645473 -1.011152 7.981616 2.117700 -0.895034 1.178108 0.348246 0.331520 0.000000 0.000000 0.000000 8.106402 1.187370 -0.456793 -1.508901 0.179955 -0.326203 -17.237395 -0.068405 2.670129 0.000000 0.000000 0.000000 7.151235 1.332314 -0.701684 2.519153 -12.982701 -9.225780 -4.412356 -4.232435 -1.766906 -22.887435 -3.770791 -43.631460 -179.381969 -57.015783 179.104758 0.000000 0.000000 0.000000 7.194260 1.318913 -0.516339 0.655782 8.913251 10.783915 1.011716 4.406914 -0.992475 5.920533 5.524126 40.911378 -178.344490 87.067754 177.060783 0.000000 0.000000 0.000000 
-1.556231 80.149994 1.079826 0.000000 0.000000 0.000000 7.111938 -12.319154 3.708688 -60.624827 -0.713317 25.120232 49.833771 -1.378426 6.886317 7.637132 0.137356 -22.755166 -0.478901 0.355736 -0.982645 0.000000 0.000000 0.000000 6.830241 -12.778709 4.101181 -35.835359 2.639705 -32.274539 51.446221 5.570689 -1.815018 -18.060767 -9.547248 29.051906 1.283240 1.160417 0.420240 0.000000 0.000000 0.000000 8.354012 -10.867348 3.945624 7.677775 0.660656 -1.025404 8.028681 2.107553 -0.919619 1.197698 0.410556 0.301081 0.000000 0.000000 0.000000 8.097081 1.178928 -0.469800 -1.514996 0.146419 -0.302092 -17.200260 -0.003305 2.620477 0.000000 0.000000 0.000000 7.223465 1.322898 -0.690485 2.490248 -12.970694 -9.251246 -4.349826 -4.132280 -1.829120 -22.757294 -3.773933 -43.870244 -179.490090 -57.143767 178.978509 0.000000 0.000000 0.000000 7.232996 1.305385 -0.535544 0.694868 9.046387 10.837097 1.032902 4.473770 -0.988606 6.069204 5.403409 40.762361 -178.721079 87.025004 177.495702 0.000000 0.000000 0.000000 
-1.483817 80.168343 1.151073 0.000000 0.000000 0.000000 7.211121 -12.364255 3.602391 -60.590314 -0.840898 25.162262 49.980459 -1.281120 6.840398 7.352320 0.212896 -22.874891 -0.462733 0.342234 -0.935253 0.000000 0.000000 0.000000 6.893421 -12.778950 3.990457 -35.801714 2.528999 -32.215892 51.064827 5.473992 -1.777996 -18.139883 -9.591297 29.037105 1.352644 1.145184 0.392971 0.000000 0.000000 0.000000 8.451127 -10.804738 3.810895 7.645622 0.706937 -1.063940 8.072416 2.128357 -0.935875 1.147435 0.364921 0.278945 0.000000 0.000000 0.000000 8.081706 1.193863 -0.481740 -1.473966 0.046372 -0.289556 -17.077008 -0.076393 2.576476 0.000000 0.000000 0.000000 7.284626 1.334503 -0.693944 2.456227 -12.951378 -9.333044 -4.293523 -4.147870 -1.778618 -22.752410 -3.657713 -44.376285 -179.648401 -57.302569 178.814325 0.000000 0.000000 0.000000 7.269198 1.323076 -0.544510 0.742531 9.240028 10.935307 1.006478 4.562256 -0.972752 6.464898 5.175680 40.483265 -178.494044 87.044347 177.336901 0.000000 0.000000 0.000000 
-1.399117 80.154083 1.209244 0.000000 0.000000 0.000000 7.309598 -12.511931 3.488816 -60.566921 -0.974435 25.234791 50.236086 -1.158114 6.756547 6.972870 0.341177 -22.965283 -0.444343 0.332638 -0.885586 0.000000 0.000000 0.000000 6.988789 -12.845631 3.870676 -35.864596 2.398664 -32.165881 50.722050 5.380512 -1.729441 -18.246640 -9.643783 29.009436 1.450571 1.135380 0.382952 0.000000 0.000000 0.000000 8.545468 -10.745155 3.671254 7.617288 0.778566 -1.125636 8.107740 2.171113 -0.947334 1.069032 0.295074 0.279375 0.000000 0.000000 0.000000 8.061233 1.228703 -0.493558 -1.416389 -0.088571 -0.291636 -16.933005 -0.253758 2.525570 0.000000 0.000000 0.000000 7.326615 1.357950 -0.715412 2.429274 -12.933030 -9.425174 -4.263273 -4.264638 -1.672859 -22.881316 -3.446404 -44.978199 -179.825466 -57.428053 178.653037 0.000000 0.000000 0.000000 7.294619 1.362458 -0.546159 0.794611 9.462949 11.019710 0.902754 4.616285 -0.892594 7.006505 4.846139 40.092657 -177.621815 87.005197 176.532659 0.000000 0.000000 0.000000 
-1.320499 80.112610 1.247578 0.000000 0.000000 0.000000 7.405690 -12.706288 3.388381 -60.546670 -1.089185 25.309259 50.558088 -1.013765 6.650198 6.545835 0.500729 -23.000778 -0.419693 0.329987 -0.837484 0.000000 0.000000 0.000000 7.105364 -12.946090 3.767702 -35.997293 2.289966 -32.141412 50.476426 5.323570 -1.682467 -18.348731 -9.697924 29.028444 1.455086 1.126379 0.399468 0.000000 0.000000 0.000000 8.633904 -10.673464 3.549662 7.592695 0.862347 -1.213128 8.135146 2.218687 -0.961735 1.020489 0.232329 0.320465 0.000000 0.000000 0.000000 8.039595 1.269026 -0.510354 -1.377659 -0.228650 -0.317322 -16.843045 -0.491672 2.463326 0.000000 0.000000 0.000000 7.354854 1.379117 -0.754773 2.417496 -12.939361 -9.488428 -4.258051 -4.414750 -1.589891 -23.099592 -3.165245 -45.497963 -179.982902 -57.471268 178.542183 0.000000 0.000000 0.000000 7.311722 1.408970 -0.546789 0.845764 9.687708 11.058210 0.729267 4.577943 -0.762143 7.580009 4.437678 39.633300 -176.290201 86.811868 175.260086 0.000000 0.000000 0.000000 
-1.256265 80.056122 1.237827 0.000000 0.000000 0.000000 7.512158 -12.899088 3.323429 -60.524868 -1.189053 25.355942 50.897835 -0.858356 6.544759 6.146890 0.653577 -22.985130 -0.396112 0.338026 -0.799202 0.000000 0.000000 0.000000 7.236069 -13.046790 3.695064 -36.152601 2.239452 -32.133708 50.358544 5.319514 -1.655461 -18.475839 -9.760383 29.082894 1.371935 1.116495 0.441979 0.000000 0.000000 0.000000 8.726093 -10.618760 3.468265 7.572556 0.944710 -1.318235 8.154647 2.252578 -0.987271 0.992182 0.169387 0.407033 0.000000 0.000000 0.000000 8.021307 1.307883 -0.536728 -1.370787 -0.354347 -0.366596 -16.811939 -0.737831 2.374630 0.000000 0.000000 0.000000 7.379583 1.391028 -0.810253 2.422971 -12.983352 -9.501507 -4.272110 -4.536856 -1.549927 -23.316451 -2.848786 -45.814238 179.896254 -57.386963 178.501516 0.000000 0.000000 0.000000 7.322588 1.450788 -0.551878 0.895575 9.880369 11.021750 0.502724 4.471632 -0.609623 8.096614 3.959324 39.186182 -175.105437 86.459335 174.129321 0.000000 0.000000 0.000000 
-1.233711 80.009605 1.201481 0.000000 0.000000 0.000000 7.601234 -13.052593 3.290820 -60.486297 -1.292071 25.373133 51.185875 -0.715263 6.467220 5.860820 0.751389 -22.966894 -0.373287 0.354633 -0.776031 0.000000 0.000000 0.000000 7.351172 -13.165132 3.661684 -36.293231 2.265828 -32.135859 50.362140 5.358955 -1.643764 -18.689655 -9.832239 29.097176 1.382403 1.107206 0.526662 0.000000 0.000000 0.000000 8.809186 -10.578074 3.423097 7.556298 1.021838 -1.433697 8.174776 2.271227 -1.022143 1.036033 0.141815 0.454035 0.000000 0.000000 0.000000 8.010782 1.339252 -0.568178 -1.387682 -0.454766 -0.441994 -16.809927 -0.975327 2.247850 0.000000 0.000000 0.000000 7.409145 1.394710 -0.870636 2.440285 -13.098839 -9.455325 -4.329502 -4.586769 -1.565306 -23.399429 -2.540819 -45.907091 179.837201 -57.137217 178.561103 0.000000 0.000000 0.000000 7.322616 1.482598 -0.561891 0.943435 10.036567 10.907537 0.268534 4.355775 -0.428093 8.480416 3.441057 38.836763 -174.443892 86.012326 173.530095 0.000000 0.000000 0.000000 
-1.243364 79.987175 1.123753 0.000000 0.000000 0.000000 7.649655 -13.158840 3.278449 -60.391911 -1.414064 25.350476 51.356841 -0.609045 6.434279 5.744126 0.758189 -22.996550 -0.377491 0.371781 -0.749325 0.000000 0.000000 0.000000 7.419225 -13.276744 3.652243 -36.408313 2.358476 -32.142020 50.444997 5.425630 -1.636008 -19.003939 -9.907888 29.026344 1.554300 1.099837 0.640571 0.000000 0.000000 0.000000 8.866473 -10.577465 3.406883 7.529983 1.093526 -1.540893 8.187781 2.279009 -1.055748 1.141314 0.130955 0.468811 0.000000 0.000000 0.000000 8.012178 1.363289 -0.595500 -1.388729 -0.535732 -0.538509 -16.778203 -1.228056 2.074130 0.000000 0.000000 0.000000 7.445786 1.403675 -0.920503 2.463430 -13.294541 -9.370036 -4.415134 -4.552154 -1.650210 -23.271908 -2.275403 -45.850227 179.861530 -56.730475 178.735368 0.000000 0.000000 0.000000 7.320903 1.509404 -0.573345 0.991670 10.152703 10.736444 0.034015 4.242629 -0.257079 8.696590 2.962889 38.681007 -174.363637 85.489940 173.529794 0.000000 0.000000 0.000000 
-1.279945 79.993149 1.008106 0.000000 0.000000 0.000000 7.628483 -13.240084 3.281373 -60.188453 -1.540766 25.297381 51.348239 -0.534304 6.444767 5.755213 0.675734 -23.062892 -0.402870 0.378174 -0.713228 0.000000 0.000000 0.000000 7.404016 -13.384870 3.661573 -36.484688 2.500898 -32.141204 50.572561 5.526385 -1.627608 -19.357584 -9.968856 28.901652 1.753678 1.095761 0.746328 0.000000 0.000000 0.000000 8.852838 -10.633052 3.414279 7.479499 1.166255 -1.606756 8.185960 2.297204 -1.070581 1.262175 0.100451 0.474526 0.000000 0.000000 0.000000 8.014505 1.397262 -0.604268 -1.334950 -0.586530 -0.648481 -16.637169 -1.507230 1.835073 0.000000 0.000000 0.000000 7.476868 1.435924 -0.944481 2.485287 -13.556799 -9.264624 -4.484154 -4.447235 -1.728611 -22.963641 -2.056515 -45.745390 179.957426 -56.183627 179.001882 0.000000 0.000000 0.000000 7.322184 1.548051 -0.576574 1.052687 10.210253 10.508926 -0.185435 4.188313 -0.119992 8.739715 2.529836 38.698646 -174.703917 84.895044 173.960410 0.000000 0.000000 0.000000 
